<svg width="512" height="512" viewBox="0 0 512 512" fill="none" xmlns="http://www.w3.org/2000/svg">
<path d="M320.666 243.887L336.63 260.737L336.647 260.756L336.665 260.774C345.917 270.296 345.966 286.057 336.63 295.912L336.623 295.918L280.063 355.906C280.058 355.911 280.053 355.916 280.048 355.921C275.64 360.487 269.757 363.003 263.675 363.003C257.593 363.003 251.708 360.485 247.299 355.917C247.295 355.913 247.291 355.909 247.288 355.906L230.788 338.489L320.666 243.887ZM377.261 402.22C389.672 402.22 400.209 413.023 400.209 426.665C400.209 440.307 389.672 451.11 377.261 451.11C364.85 451.11 354.313 440.307 354.313 426.665C354.313 413.023 364.85 402.22 377.261 402.22ZM404.209 365.775C391.797 365.775 381.261 354.972 381.261 341.33C381.261 327.688 391.797 316.885 404.209 316.885C416.62 316.885 427.156 327.688 427.156 341.33C427.156 354.972 416.62 365.775 404.209 365.775ZM458.104 508C445.693 508 435.156 497.197 435.156 483.555C435.156 469.913 445.693 459.11 458.104 459.11C470.515 459.11 481.052 469.913 481.052 483.555C481.052 497.197 470.515 508 458.104 508ZM485.052 422.665C472.641 422.665 462.104 411.862 462.104 398.22C462.104 384.578 472.641 373.775 485.052 373.775C497.463 373.775 508 384.578 508 398.22C508 411.862 497.463 422.665 485.052 422.665ZM296.307 217.584L205.833 313.084L22.0136 158.251C-0.524083 138.119 -2.27012 101.777 18.7937 79.5426L75.6537 19.5237C96.5697 -2.55432 130.621 -0.781067 149.626 22.925L296.307 217.584Z" fill="#FF0000" stroke="black" stroke-width="8"/>
</svg>
