<svg width="106" height="65" viewBox="0 0 106 65" fill="none" xmlns="http://www.w3.org/2000/svg">
<rect x="105.75" width="64.9999" height="105.007" transform="rotate(90 105.75 0)" fill="#0A1319" fill-opacity="0.36"/>
<rect x="105.25" y="0.5" width="63.9999" height="104.007" transform="rotate(90 105.25 0.5)" stroke="#0A1319" stroke-opacity="0.36"/>
<path d="M64.4749 42.9001L55.2775 34.4101L44.6392 24.5901L43.025 23.1001L41.4976 24.5101L44 26.8301V40.0001C44 41.1001 44.975 42.0001 46.1667 42.0001H60.4341L62.9366 44.3101L64.4749 42.9001ZM46.1667 39.0001L49.9583 34.5001L52.6667 37.5101L53.9341 36.0001L57.1841 39.0001H46.1667ZM63.4999 39.1701L47.0659 24.0001H61.3333C62.5249 24.0001 63.4999 24.9001 63.4999 26.0001V39.1701Z" fill="#0A1319" fill-opacity="0.36"/>
</svg>
